<svg xmlns="http://www.w3.org/2000/svg" version="1.1" xmlns:xlink="http://www.w3.org/1999/xlink" xmlns:svgjs="http://svgjs.dev/svgjs" width="1000" height="1000" viewBox="0 0 1000 1000"><rect width="1000" height="1000" fill="#ffffff"></rect><g transform="matrix(0.7,0,0,0.7,149.7856126403999,276.8808097165993)"><svg viewBox="0 0 387 247" data-background-color="#ffffff" preserveAspectRatio="xMidYMid meet" height="638" width="1000" xmlns="http://www.w3.org/2000/svg" xmlns:xlink="http://www.w3.org/1999/xlink"><g id="tight-bounds" transform="matrix(1,0,0,1,0.11852559285142661,-0.09999999999999432)"><svg viewBox="0 0 386.7629328459118 247.2" height="247.2" width="386.7629328459118"><g><svg viewBox="0 0 395.52 252.7970901465706" height="247.2" width="386.7629328459118"><g transform="matrix(1,0,0,1,0,152.70349896439845)"><svg viewBox="0 0 395.52 100.09359118217218" height="100.09359118217218" width="395.52"><g id="textblocktransform"><svg viewBox="0 0 395.52 100.09359118217218" height="100.09359118217218" width="395.52" id="textblock"><g><svg viewBox="0 0 395.52 60.88783252273207" height="60.88783252273207" width="395.52"><g transform="matrix(1,0,0,1,0,0)"><svg width="395.52" viewBox="3.549999952316284 -35.70000076293945 236.42999267578125 36.400001525878906" height="60.88783252273207" data-palette-color="#89939e"><path d="M3.55 0L3.55-35 8.75-35 8.75 0 3.55 0ZM19.95 0L9-18.55 19.95-35 25.95-35 14.85-18.55 25.95 0 19.95 0ZM29.65 0L29.65-35 35.3-35 48.15-11.05 48.15-35 53.35-35 53.35 0 48.65 0 34.9-25.4 34.9 0 29.65 0ZM73 0.7Q68.7 0.7 65.32-1.55 61.95-3.8 60.05-7.93 58.15-12.05 58.15-17.5L58.15-17.5Q58.15-22.95 60.05-27.08 61.95-31.2 65.32-33.45 68.7-35.7 73-35.7L73-35.7Q77.3-35.7 80.65-33.45 84-31.2 85.9-27.08 87.8-22.95 87.8-17.5L87.8-17.5Q87.8-12.05 85.9-7.93 84-3.8 80.65-1.55 77.3 0.7 73 0.7L73 0.7ZM73-4.55Q77.45-4.55 79.84-8.15 82.25-11.75 82.25-17.5L82.25-17.5Q82.25-23.25 79.84-26.85 77.45-30.45 73-30.45L73-30.45Q68.55-30.45 66.15-26.85 63.75-23.25 63.75-17.5L63.75-17.5Q63.75-11.75 66.15-8.15 68.55-4.55 73-4.55L73-4.55ZM97.39 0L89.14-35 94.54-35 100.34-7.6 106.59-34.3 112.34-34.3 118.64-7.6 124.44-35 129.84-35 121.59 0 115.84 0 109.44-26.6 103.14 0 97.39 0ZM133.34 0L133.34-35 138.99-35 151.84-11.05 151.84-35 157.04-35 157.04 0 152.34 0 138.59-25.4 138.59 0 133.34 0ZM162.44-13.3L162.44-17.8 175.79-17.8 175.79-13.3 162.44-13.3ZM181.19 0L181.19-35 192.44-35Q196.74-35 200.11-32.9 203.49-30.8 205.39-26.85 207.29-22.9 207.29-17.5L207.29-17.5Q207.29-12.1 205.39-8.15 203.49-4.2 200.11-2.1 196.74 0 192.44 0L192.44 0 181.19 0ZM186.44-4.8L191.99-4.8Q196.64-4.8 199.06-8.13 201.49-11.45 201.49-17.5L201.49-17.5Q201.49-23.55 199.06-26.88 196.64-30.2 191.99-30.2L191.99-30.2 186.44-30.2 186.44-4.8ZM225.18 0.7Q220.88 0.7 217.51-1.55 214.13-3.8 212.23-7.93 210.33-12.05 210.33-17.5L210.33-17.5Q210.33-22.95 212.23-27.08 214.13-31.2 217.51-33.45 220.88-35.7 225.18-35.7L225.18-35.7Q229.48-35.7 232.83-33.45 236.18-31.2 238.08-27.08 239.98-22.95 239.98-17.5L239.98-17.5Q239.98-12.05 238.08-7.93 236.18-3.8 232.83-1.55 229.48 0.7 225.18 0.7L225.18 0.7ZM225.18-4.55Q229.63-4.55 232.03-8.15 234.43-11.75 234.43-17.5L234.43-17.5Q234.43-23.25 232.03-26.85 229.63-30.45 225.18-30.45L225.18-30.45Q220.73-30.45 218.33-26.85 215.93-23.25 215.93-17.5L215.93-17.5Q215.93-11.75 218.33-8.15 220.73-4.55 225.18-4.55L225.18-4.55Z" opacity="1" transform="matrix(1,0,0,1,0,0)" fill="#000000" class="undefined-text-0" data-fill-palette-color="primary" id="text-0"></path></svg></g></svg></g><g transform="matrix(1,0,0,1,0,75.26198847336856)"><svg viewBox="0 0 395.52 24.831602708803615" height="24.831602708803615" width="395.52"><g transform="matrix(1,0,0,1,0,0)"><svg width="395.52" viewBox="0.45000001788139343 -33.29999923706055 708.719970703125 44.5" height="24.831602708803615" data-palette-color="#89939e"><path d="M14.9-0.5L14.9-0.5 15.15-0.5 15.15 0 8.05 0 8.05-0.5 8.3-0.5Q8.7-0.5 9-0.8 9.3-1.1 9.53-1.5 9.75-1.9 9.85-2.38 9.95-2.85 9.95-3.25L9.95-3.25 9.95-31.15 4.15-31.15Q3.35-31.15 2.75-30.8 2.15-30.45 1.75-29.93 1.35-29.4 1.15-28.78 0.95-28.15 0.95-27.55L0.95-27.55 0.45-27.55 0.45-33 22.9-33 22.9-27.55 22.4-27.55Q22.4-28.15 22.2-28.78 22-29.4 21.6-29.93 21.2-30.45 20.6-30.8 20-31.15 19.2-31.15L19.2-31.15 13.3-31.15 13.3-3.25Q13.3-2.85 13.4-2.38 13.5-1.9 13.73-1.5 13.95-1.1 14.23-0.8 14.5-0.5 14.9-0.5ZM45.75-12.9L45.75-3.25Q45.75-2.85 45.85-2.38 45.95-1.9 46.17-1.5 46.4-1.1 46.67-0.8 46.95-0.5 47.35-0.5L47.35-0.5 47.35 0 40.9 0 40.9-0.5Q41.25-0.5 41.55-0.8 41.85-1.1 42.07-1.5 42.3-1.9 42.4-2.38 42.5-2.85 42.5-3.25L42.5-3.25 42.5-12.55Q42.5-14.35 42-15.7 41.5-17.05 40.65-17.95 39.8-18.85 38.72-19.28 37.65-19.7 36.55-19.7L36.55-19.7Q35.45-19.7 34.37-19.28 33.3-18.85 32.47-18.1 31.65-17.35 31.12-16.28 30.6-15.2 30.6-13.9L30.6-13.9 30.6-3.25Q30.6-2.85 30.7-2.38 30.8-1.9 31.02-1.5 31.25-1.1 31.52-0.8 31.8-0.5 32.2-0.5L32.2-0.5 32.2 0 25.7 0 25.7-0.5Q26.05-0.5 26.35-0.8 26.65-1.1 26.87-1.5 27.1-1.9 27.2-2.38 27.3-2.85 27.3-3.25L27.3-3.25 27.3-28.8Q27.3-29.65 27.05-30.4 26.8-31.15 25.6-31.2L25.6-31.2 25.6-31.7 30.6-33.25 30.6-18.8Q30.95-19.2 31.5-19.68 32.05-20.15 32.82-20.58 33.6-21 34.62-21.28 35.65-21.55 37.05-21.55L37.05-21.55Q39.4-21.55 41.05-20.75 42.7-19.95 43.75-18.68 44.8-17.4 45.27-15.88 45.75-14.35 45.75-12.9L45.75-12.9ZM72.34-10.1L55-10.1Q55.2-8.35 55.85-6.78 56.5-5.2 57.57-4 58.65-2.8 60.2-2.08 61.75-1.35 63.8-1.35L63.8-1.35Q64.9-1.35 66.12-1.68 67.34-2 68.4-2.6 69.45-3.2 70.27-4.08 71.09-4.95 71.4-6.05L71.4-6.05 71.84-6.05 71.84-2.3Q71.55-2.3 71.17-2.1 70.8-1.9 70.3-1.6L70.3-1.6Q69.3-1 67.59-0.33 65.9 0.35 63.1 0.35L63.1 0.35Q60.85 0.35 58.82-0.3 56.8-0.95 55.25-2.3 53.7-3.65 52.77-5.75 51.85-7.85 51.85-10.75L51.85-10.75Q51.85-12.6 52.47-14.5 53.1-16.4 54.37-17.93 55.65-19.45 57.65-20.4 59.65-21.35 62.45-21.35L62.45-21.35Q64.95-21.35 66.82-20.5 68.7-19.65 69.92-18.15 71.15-16.65 71.75-14.6 72.34-12.55 72.34-10.1L72.34-10.1ZM62.25-19.7L62.25-19.7Q60.5-19.7 59.22-19 57.95-18.3 57.05-17.2 56.15-16.1 55.65-14.7 55.15-13.3 55-11.9L55-11.9 69.25-11.9Q69.2-13.35 68.72-14.75 68.25-16.15 67.4-17.25 66.55-18.35 65.25-19.03 63.95-19.7 62.25-19.7ZM109.29-21.55L109.29-3.25Q109.29-2.9 109.39-2.43 109.49-1.95 109.67-1.53 109.84-1.1 110.14-0.8 110.44-0.5 110.84-0.5L110.84-0.5 110.84 0 105.99 0 105.99-2.75Q105.24-1.65 103.79-0.6 102.34 0.45 100.04 0.45L100.04 0.45Q97.14 0.45 95.44-0.55 93.74-1.55 92.84-3.1 91.94-4.65 91.69-6.48 91.44-8.3 91.44-9.9L91.44-9.9 91.44-17.05Q91.44-17.5 91.42-17.93 91.39-18.35 91.22-18.7 91.04-19.05 90.69-19.28 90.34-19.5 89.69-19.5L89.69-19.5 89.69-19.95 94.74-21.55 94.74-8.8Q94.74-5 96.39-3.2 98.04-1.4 100.44-1.4L100.44-1.4Q101.74-1.4 102.77-1.98 103.79-2.55 104.52-3.35 105.24-4.15 105.62-5 105.99-5.85 105.99-6.4L105.99-6.4 105.99-17.05Q105.99-17.5 105.97-17.93 105.94-18.35 105.77-18.7 105.59-19.05 105.24-19.28 104.89-19.5 104.24-19.5L104.24-19.5 104.24-19.95 109.29-21.55ZM135.79-12.9L135.79-3.25Q135.79-2.85 135.89-2.38 135.99-1.9 136.21-1.5 136.44-1.1 136.71-0.8 136.99-0.5 137.39-0.5L137.39-0.5 137.39 0 130.94 0 130.94-0.5Q131.29-0.5 131.59-0.8 131.89-1.1 132.11-1.5 132.34-1.9 132.44-2.38 132.54-2.85 132.54-3.25L132.54-3.25 132.54-12.55Q132.54-14.35 132.04-15.7 131.54-17.05 130.69-17.95 129.84-18.85 128.76-19.28 127.69-19.7 126.59-19.7L126.59-19.7Q125.49-19.7 124.41-19.25 123.34-18.8 122.51-18.07 121.69-17.35 121.16-16.38 120.64-15.4 120.64-14.35L120.64-14.35 120.64-3.25Q120.64-2.85 120.74-2.38 120.84-1.9 121.06-1.5 121.29-1.1 121.56-0.8 121.84-0.5 122.24-0.5L122.24-0.5 122.24 0 115.74 0 115.74-0.5Q116.09-0.5 116.39-0.8 116.69-1.1 116.91-1.5 117.14-1.9 117.24-2.38 117.34-2.85 117.34-3.25L117.34-3.25 117.34-17.05Q117.34-17.9 117.09-18.68 116.84-19.45 115.64-19.5L115.64-19.5 115.64-19.95 120.64-21.55 120.64-18.8Q120.99-19.2 121.54-19.68 122.09-20.15 122.86-20.58 123.64-21 124.66-21.28 125.69-21.55 127.09-21.55L127.09-21.55Q129.44-21.55 131.09-20.75 132.74-19.95 133.79-18.68 134.84-17.4 135.31-15.88 135.79-14.35 135.79-12.9L135.79-12.9ZM149.49 0L142.99 0 142.99-0.5Q143.39-0.5 143.69-0.8 143.99-1.1 144.19-1.5 144.39-1.9 144.49-2.38 144.59-2.85 144.59-3.25L144.59-3.25 144.59-17.1Q144.59-17.95 144.34-18.73 144.09-19.5 142.89-19.55L142.89-19.55 142.89-20 147.89-21.6 147.89-3.25Q147.89-2.85 147.99-2.38 148.09-1.9 148.29-1.5 148.49-1.1 148.79-0.8 149.09-0.5 149.49-0.5L149.49-0.5 149.49 0ZM143.24-26.4L143.24-26.4Q143.24-27.4 143.91-28.1 144.59-28.8 145.59-28.8L145.59-28.8Q146.59-28.8 147.29-28.1 147.99-27.4 147.99-26.4L147.99-26.4Q147.99-25.4 147.29-24.75 146.59-24.1 145.59-24.1L145.59-24.1Q144.59-24.1 143.91-24.75 143.24-25.4 143.24-26.4ZM165.33-19.3L159.73-19.3 159.73-7.25Q159.73-5.95 159.78-4.9 159.83-3.85 160.03-3.15 160.23-2.45 160.63-2.08 161.03-1.7 161.73-1.7L161.73-1.7Q162.78-1.7 163.71-2.7 164.63-3.7 164.88-5.1L164.88-5.1 165.33-5.1 165.33-1.45Q164.88-1.45 164.58-1.15L164.58-1.15Q164.18-0.8 163.46-0.4 162.73 0 161.28 0L161.28 0Q159.48 0 158.48-0.7 157.48-1.4 157.03-2.55 156.58-3.7 156.51-5.1 156.43-6.5 156.43-7.95L156.43-7.95 156.43-19.3 153.63-19.3 153.63-21 156.43-21 156.43-25.45Q156.43-26.3 156.21-27.03 155.98-27.75 154.73-27.8L154.73-27.8 154.73-28.3 159.73-29.9 159.73-21 165.33-21 165.33-19.3ZM187.38-18.3L177.08 7.15Q176.38 9.25 175.31 10 174.23 10.75 173.08 10.75L173.08 10.75Q172.33 10.75 171.76 10.55 171.18 10.35 170.76 10.08 170.33 9.8 170.08 9.55 169.83 9.3 169.78 9.15L169.78 9.15 171.43 5.1Q171.68 6 171.93 6.45L171.93 6.45Q172.18 6.95 172.63 7.35 173.08 7.75 173.73 7.75L173.73 7.75Q174.93 7.75 175.63 6L175.63 6 178.08-0.15 170.03-18.35Q169.78-18.95 169.21-19.73 168.63-20.5 167.63-20.5L167.63-20.5 167.63-21 174.23-21 174.23-20.5Q174.03-20.5 173.73-20.15 173.43-19.8 173.43-19.25L173.43-19.25Q173.43-18.8 173.63-18.45L173.63-18.45 179.78-4.3 185.68-18.75Q185.83-19.1 185.83-19.4L185.83-19.4Q185.83-19.9 185.51-20.2 185.18-20.5 184.83-20.5L184.83-20.5 184.83-21 189.68-21 189.68-20.5Q188.88-20.5 188.31-19.83 187.73-19.15 187.38-18.3L187.38-18.3ZM216.28 0.35L216.28 0.35Q213.78 0.35 211.78-0.48 209.78-1.3 208.35-2.73 206.93-4.15 206.15-6.1 205.38-8.05 205.38-10.35L205.38-10.35Q205.38-12.8 206.23-14.83 207.08-16.85 208.58-18.3 210.08-19.75 212.13-20.55 214.18-21.35 216.58-21.35L216.58-21.35Q218.98-21.35 220.98-20.58 222.98-19.8 224.43-18.4 225.88-17 226.68-15.08 227.48-13.15 227.48-10.85L227.48-10.85Q227.48-8.7 226.75-6.68 226.03-4.65 224.6-3.1 223.18-1.55 221.1-0.6 219.03 0.35 216.28 0.35ZM215.98-19.7L215.98-19.7Q214.18-19.6 212.8-18.82 211.43-18.05 210.5-16.82 209.58-15.6 209.1-14.05 208.63-12.5 208.63-10.9L208.63-10.9Q208.63-9.05 209.2-7.33 209.78-5.6 210.85-4.25 211.93-2.9 213.43-2.1 214.93-1.3 216.78-1.3L216.78-1.3Q218.63-1.3 220.05-2.1 221.48-2.9 222.43-4.17 223.38-5.45 223.85-7.05 224.33-8.65 224.33-10.25L224.33-10.25Q224.33-11.9 223.83-13.58 223.33-15.25 222.28-16.63 221.23-18 219.65-18.85 218.08-19.7 215.98-19.7ZM242.22-19.3L236.57-19.3 236.57-3.25Q236.57-2.85 236.67-2.38 236.77-1.9 237-1.5 237.22-1.1 237.5-0.8 237.77-0.5 238.17-0.5L238.17-0.5 238.17 0 231.67 0 231.67-0.5Q232.02-0.5 232.32-0.8 232.62-1.1 232.85-1.5 233.07-1.9 233.17-2.38 233.27-2.85 233.27-3.25L233.27-3.25 233.27-19.3 230.77-19.3 230.77-21 233.27-21 233.27-25.05Q233.27-26.6 233.37-28.05 233.47-29.5 233.97-30.65 234.47-31.8 235.5-32.5 236.52-33.2 238.32-33.2L238.32-33.2Q239.32-33.2 240.05-32.98 240.77-32.75 241.3-32.48 241.82-32.2 242.17-31.98 242.52-31.75 242.77-31.75L242.77-31.75 242.77-28.1 242.32-28.1Q242.07-29.55 241.02-30.53 239.97-31.5 238.92-31.5L238.92-31.5Q237.47-31.5 237.02-29.98 236.57-28.45 236.57-25.75L236.57-25.75 236.57-21 242.22-21 242.22-19.3ZM278.42 0L275.57 0Q274.72 0 273.99-0.38 273.27-0.75 272.72-1.2L272.72-1.2Q272.07-1.75 271.52-2.4L271.52-2.4 265.07-10.7 264.02-9.65 264.02-3.15Q264.02-2.8 264.12-2.35 264.22-1.9 264.44-1.48 264.67-1.05 264.97-0.78 265.27-0.5 265.67-0.5L265.67-0.5 265.67 0 259.17 0 259.17-0.5Q259.52-0.5 259.82-0.78 260.12-1.05 260.32-1.45 260.52-1.85 260.62-2.3 260.72-2.75 260.72-3.15L260.72-3.15 260.72-28.6Q260.72-29.3 260.27-30 259.82-30.7 259.07-30.75L259.07-30.75 259.07-31.25 264.02-32.8 264.02-11.95 272.12-19.55Q272.37-19.8 272.37-20.15L272.37-20.15Q272.37-20.5 272.02-20.5L272.02-20.5 272.02-21 276.52-21 276.52-20.5Q276.22-20.5 275.89-20.35 275.57-20.2 275.27-20L275.27-20Q274.92-19.8 274.57-19.5L274.57-19.5 267.47-12.9 274.87-3.55Q275.52-2.65 276.17-2L276.17-2Q276.72-1.45 277.34-0.98 277.97-0.5 278.42-0.5L278.42-0.5 278.42 0ZM302.02-12.9L302.02-3.25Q302.02-2.85 302.12-2.38 302.22-1.9 302.44-1.5 302.67-1.1 302.94-0.8 303.22-0.5 303.62-0.5L303.62-0.5 303.62 0 297.17 0 297.17-0.5Q297.52-0.5 297.82-0.8 298.12-1.1 298.34-1.5 298.57-1.9 298.67-2.38 298.77-2.85 298.77-3.25L298.77-3.25 298.77-12.55Q298.77-14.35 298.27-15.7 297.77-17.05 296.92-17.95 296.07-18.85 294.99-19.28 293.92-19.7 292.82-19.7L292.82-19.7Q291.72-19.7 290.64-19.25 289.57-18.8 288.74-18.07 287.92-17.35 287.39-16.38 286.87-15.4 286.87-14.35L286.87-14.35 286.87-3.25Q286.87-2.85 286.97-2.38 287.07-1.9 287.29-1.5 287.52-1.1 287.79-0.8 288.07-0.5 288.47-0.5L288.47-0.5 288.47 0 281.97 0 281.97-0.5Q282.32-0.5 282.62-0.8 282.92-1.1 283.14-1.5 283.37-1.9 283.47-2.38 283.57-2.85 283.57-3.25L283.57-3.25 283.57-17.05Q283.57-17.9 283.32-18.68 283.07-19.45 281.87-19.5L281.87-19.5 281.87-19.95 286.87-21.55 286.87-18.8Q287.22-19.2 287.77-19.68 288.32-20.15 289.09-20.58 289.87-21 290.89-21.28 291.92-21.55 293.32-21.55L293.32-21.55Q295.67-21.55 297.32-20.75 298.97-19.95 300.02-18.68 301.07-17.4 301.54-15.88 302.02-14.35 302.02-12.9L302.02-12.9ZM319.01 0.35L319.01 0.35Q316.51 0.35 314.51-0.48 312.51-1.3 311.09-2.73 309.66-4.15 308.89-6.1 308.11-8.05 308.11-10.35L308.11-10.35Q308.11-12.8 308.96-14.83 309.81-16.85 311.31-18.3 312.81-19.75 314.86-20.55 316.91-21.35 319.31-21.35L319.31-21.35Q321.71-21.35 323.71-20.58 325.71-19.8 327.16-18.4 328.61-17 329.41-15.08 330.21-13.15 330.21-10.85L330.21-10.85Q330.21-8.7 329.49-6.68 328.76-4.65 327.34-3.1 325.91-1.55 323.84-0.6 321.76 0.35 319.01 0.35ZM318.71-19.7L318.71-19.7Q316.91-19.6 315.54-18.82 314.16-18.05 313.24-16.82 312.31-15.6 311.84-14.05 311.36-12.5 311.36-10.9L311.36-10.9Q311.36-9.05 311.94-7.33 312.51-5.6 313.59-4.25 314.66-2.9 316.16-2.1 317.66-1.3 319.51-1.3L319.51-1.3Q321.36-1.3 322.79-2.1 324.21-2.9 325.16-4.17 326.11-5.45 326.59-7.05 327.06-8.65 327.06-10.25L327.06-10.25Q327.06-11.9 326.56-13.58 326.06-15.25 325.01-16.63 323.96-18 322.39-18.85 320.81-19.7 318.71-19.7ZM365.31-21L365.31-20.5Q364.41-20.5 363.94-20 363.46-19.5 363.06-18.5L363.06-18.5 355.51 0.4 349.06-15.4 342.66 0.35 335.26-17.95Q334.91-18.8 334.39-19.65 333.86-20.5 333.01-20.5L333.01-20.5 333.01-21 339.86-21 339.86-20.5Q339.51-20.5 338.99-20.18 338.46-19.85 338.46-19.1L338.46-19.1Q338.46-19 338.54-18.68 338.61-18.35 338.71-18.1L338.71-18.1 343.61-6 349.91-21.55 356.26-6 361.21-18.3Q361.46-19.05 361.46-19.35L361.46-19.35Q361.46-19.75 361.21-20.1 360.96-20.45 360.36-20.5L360.36-20.5 360.36-21 365.31-21ZM375.11 0L368.56 0 368.56-0.5Q368.96-0.5 369.26-0.8 369.56-1.1 369.78-1.5 370.01-1.9 370.11-2.38 370.21-2.85 370.21-3.25L370.21-3.25 370.21-28.85Q370.21-29.7 369.96-30.45 369.71-31.2 368.46-31.25L368.46-31.25 368.46-31.75 373.51-33.3 373.51-3.25Q373.51-2.85 373.61-2.38 373.71-1.9 373.93-1.5 374.16-1.1 374.43-0.8 374.71-0.5 375.11-0.5L375.11-0.5 375.11 0ZM400.01-10.1L382.66-10.1Q382.86-8.35 383.51-6.78 384.16-5.2 385.23-4 386.31-2.8 387.86-2.08 389.41-1.35 391.46-1.35L391.46-1.35Q392.56-1.35 393.78-1.68 395.01-2 396.06-2.6 397.11-3.2 397.93-4.08 398.76-4.95 399.06-6.05L399.06-6.05 399.51-6.05 399.51-2.3Q399.21-2.3 398.83-2.1 398.46-1.9 397.96-1.6L397.96-1.6Q396.96-1 395.26-0.33 393.56 0.35 390.76 0.35L390.76 0.35Q388.51 0.35 386.48-0.3 384.46-0.95 382.91-2.3 381.36-3.65 380.43-5.75 379.51-7.85 379.51-10.75L379.51-10.75Q379.51-12.6 380.13-14.5 380.76-16.4 382.03-17.93 383.31-19.45 385.31-20.4 387.31-21.35 390.11-21.35L390.11-21.35Q392.61-21.35 394.48-20.5 396.36-19.65 397.58-18.15 398.81-16.65 399.41-14.6 400.01-12.55 400.01-10.1L400.01-10.1ZM389.91-19.7L389.91-19.7Q388.16-19.7 386.88-19 385.61-18.3 384.71-17.2 383.81-16.1 383.31-14.7 382.81-13.3 382.66-11.9L382.66-11.9 396.91-11.9Q396.86-13.35 396.38-14.75 395.91-16.15 395.06-17.25 394.21-18.35 392.91-19.03 391.61-19.7 389.91-19.7ZM424.95 0L420.05 0 420.05-2.2Q419.2-1.25 417.78-0.45 416.35 0.35 414.2 0.35L414.2 0.35Q411.55 0.35 409.58-0.58 407.6-1.5 406.3-3 405-4.5 404.38-6.43 403.75-8.35 403.75-10.4L403.75-10.4Q403.75-12.4 404.4-14.38 405.05-16.35 406.35-17.9 407.65-19.45 409.6-20.4 411.55-21.35 414.1-21.35L414.1-21.35Q415.8-21.35 417.45-20.73 419.1-20.1 420.05-19.1L420.05-19.1 420.05-28.85Q420.05-29.7 419.8-30.45 419.55-31.2 418.35-31.25L418.35-31.25 418.35-31.75 423.35-33.3 423.35-3.25Q423.35-2.85 423.45-2.38 423.55-1.9 423.75-1.5 423.95-1.1 424.25-0.8 424.55-0.5 424.95-0.5L424.95-0.5 424.95 0ZM414.55-1.3L414.55-1.3Q415.6-1.3 416.6-1.73 417.6-2.15 418.35-2.88 419.1-3.6 419.58-4.58 420.05-5.55 420.05-6.7L420.05-6.7 420.05-13.55Q420.05-14.95 419.45-16.07 418.85-17.2 417.95-18 417.05-18.8 415.98-19.23 414.9-19.65 413.9-19.65L413.9-19.65Q412.25-19.65 410.95-18.88 409.65-18.1 408.75-16.88 407.85-15.65 407.4-14.13 406.95-12.6 406.95-11.1L406.95-11.1Q406.95-9.35 407.45-7.63 407.95-5.9 408.93-4.53 409.9-3.15 411.3-2.25 412.7-1.35 414.55-1.3ZM440.2 9.3L440.2 9.3Q441.7 9.3 443.05 9.03 444.4 8.75 445.43 8.25 446.45 7.75 447.05 7.05 447.65 6.35 447.65 5.55L447.65 5.55Q447.65 4.7 446.83 4.1 446 3.5 444.6 3.05 443.2 2.6 441.35 2.27 439.5 1.95 437.5 1.6L437.5 1.6 434.95 1.15Q433.8 2.05 433.35 3.05 432.9 4.05 432.9 4.8L432.9 4.8Q432.9 5.85 433.48 6.68 434.05 7.5 435.03 8.1 436 8.7 437.33 9 438.65 9.3 440.2 9.3ZM436.7-1.7L442.95-0.7Q444.95-0.4 446.28 0.1 447.6 0.6 448.4 1.28 449.2 1.95 449.5 2.78 449.8 3.6 449.8 4.55L449.8 4.55Q449.8 6.25 448.88 7.5 447.95 8.75 446.48 9.58 445 10.4 443.13 10.8 441.25 11.2 439.3 11.2L439.3 11.2Q437.4 11.2 435.65 10.83 433.9 10.45 432.55 9.7 431.2 8.95 430.4 7.83 429.6 6.7 429.6 5.25L429.6 5.25Q429.6 3.95 430.4 2.78 431.2 1.6 433 0.45L433 0.45Q431.25-0.45 430.33-1.98 429.4-3.5 429.4-5.1L429.4-5.1Q429.4-6.05 429.85-6.98 430.3-7.9 431.3-8.7L431.3-8.7Q430.45-9.7 430.1-10.7 429.75-11.7 429.75-12.85L429.75-12.85Q429.75-14.65 430.5-16.2 431.25-17.75 432.55-18.9 433.85-20.05 435.6-20.7 437.35-21.35 439.35-21.35L439.35-21.35Q441.45-21.35 443.35-20.63 445.25-19.9 446.55-18.75L446.55-18.75 450.15-18.75 450.15-16.95 447.85-16.95Q448.2-16.2 448.55-15.18 448.9-14.15 448.9-13.05L448.9-13.05Q448.9-11.45 448.15-10.03 447.4-8.6 446.08-7.53 444.75-6.45 442.98-5.83 441.2-5.2 439.2-5.2L439.2-5.2Q437.35-5.2 435.6-5.75 433.85-6.3 432.5-7.35L432.5-7.35Q431.95-7 431.75-6.48 431.55-5.95 431.55-5.4L431.55-5.4Q431.55-3.8 433-2.93 434.45-2.05 436.7-1.7L436.7-1.7ZM438.75-19.6L438.75-19.6Q437.55-19.6 436.5-19.18 435.45-18.75 434.65-18 433.85-17.25 433.38-16.18 432.9-15.1 432.9-13.75L432.9-13.75Q432.9-12.1 433.58-10.8 434.25-9.5 435.3-8.65 436.35-7.8 437.63-7.35 438.9-6.9 440.05-6.9L440.05-6.9Q441.3-6.9 442.33-7.38 443.35-7.85 444.1-8.68 444.85-9.5 445.25-10.6 445.65-11.7 445.65-12.9L445.65-12.9Q445.65-14.4 445.05-15.65 444.45-16.9 443.48-17.78 442.5-18.65 441.25-19.13 440-19.6 438.75-19.6ZM474.65-10.1L457.3-10.1Q457.5-8.35 458.15-6.78 458.8-5.2 459.87-4 460.95-2.8 462.5-2.08 464.05-1.35 466.1-1.35L466.1-1.35Q467.2-1.35 468.42-1.68 469.65-2 470.7-2.6 471.75-3.2 472.57-4.08 473.4-4.95 473.7-6.05L473.7-6.05 474.15-6.05 474.15-2.3Q473.85-2.3 473.47-2.1 473.1-1.9 472.6-1.6L472.6-1.6Q471.6-1 469.9-0.33 468.2 0.35 465.4 0.35L465.4 0.35Q463.15 0.35 461.12-0.3 459.1-0.95 457.55-2.3 456-3.65 455.07-5.75 454.15-7.85 454.15-10.75L454.15-10.75Q454.15-12.6 454.77-14.5 455.4-16.4 456.67-17.93 457.95-19.45 459.95-20.4 461.95-21.35 464.75-21.35L464.75-21.35Q467.25-21.35 469.12-20.5 471-19.65 472.22-18.15 473.45-16.65 474.05-14.6 474.65-12.55 474.65-10.1L474.65-10.1ZM464.55-19.7L464.55-19.7Q462.8-19.7 461.52-19 460.25-18.3 459.35-17.2 458.45-16.1 457.95-14.7 457.45-13.3 457.3-11.9L457.3-11.9 471.55-11.9Q471.5-13.35 471.02-14.75 470.55-16.15 469.7-17.25 468.85-18.35 467.55-19.03 466.25-19.7 464.55-19.7ZM509.84 0L504.99 0 504.99-2.55 504.74-2.3Q503.49-1.05 501.87-0.35 500.24 0.35 497.94 0.35L497.94 0.35Q496.19 0.35 494.94-0.05 493.69-0.45 492.89-1.18 492.09-1.9 491.72-2.85 491.34-3.8 491.34-4.85L491.34-4.85Q491.34-6.55 492.27-7.85 493.19-9.15 494.94-10.15 496.69-11.15 499.22-11.98 501.74-12.8 504.99-13.6L504.99-13.6Q504.89-15.55 504.19-16.75 503.49-17.95 502.54-18.63 501.59-19.3 500.54-19.53 499.49-19.75 498.74-19.75L498.74-19.75Q497.44-19.75 496.47-19.35 495.49-18.95 494.77-18.32 494.04-17.7 493.54-16.98 493.04-16.25 492.74-15.6L492.74-15.6 492.29-15.6 492.29-19.25Q492.69-19.3 493.04-19.5 493.39-19.7 493.89-19.9L493.89-19.9Q494.64-20.2 495.94-20.78 497.24-21.35 499.59-21.35L499.59-21.35Q502.34-21.35 504.04-20.65 505.74-19.95 506.67-18.8 507.59-17.65 507.89-16.18 508.19-14.7 508.19-13.15L508.19-13.15 508.19-3.25Q508.19-2.25 508.64-1.38 509.09-0.5 509.84-0.5L509.84-0.5 509.84 0ZM504.44-4.15L504.99-4.75 504.99-11.9 504.49-11.8Q503.29-11.5 501.57-11 499.84-10.5 498.29-9.7 496.74-8.9 495.64-7.8 494.54-6.7 494.54-5.25L494.54-5.25Q494.54-3.65 495.84-2.6 497.14-1.55 499.24-1.55L499.24-1.55Q500.89-1.55 502.14-2.27 503.39-3 504.44-4.15L504.44-4.15ZM534.74-12.9L534.74-3.25Q534.74-2.85 534.84-2.38 534.94-1.9 535.16-1.5 535.39-1.1 535.66-0.8 535.94-0.5 536.34-0.5L536.34-0.5 536.34 0 529.89 0 529.89-0.5Q530.24-0.5 530.54-0.8 530.84-1.1 531.06-1.5 531.29-1.9 531.39-2.38 531.49-2.85 531.49-3.25L531.49-3.25 531.49-12.55Q531.49-14.35 530.99-15.7 530.49-17.05 529.64-17.95 528.79-18.85 527.72-19.28 526.64-19.7 525.54-19.7L525.54-19.7Q524.44-19.7 523.37-19.25 522.29-18.8 521.47-18.07 520.64-17.35 520.12-16.38 519.59-15.4 519.59-14.35L519.59-14.35 519.59-3.25Q519.59-2.85 519.69-2.38 519.79-1.9 520.01-1.5 520.24-1.1 520.51-0.8 520.79-0.5 521.19-0.5L521.19-0.5 521.19 0 514.69 0 514.69-0.5Q515.04-0.5 515.34-0.8 515.64-1.1 515.87-1.5 516.09-1.9 516.19-2.38 516.29-2.85 516.29-3.25L516.29-3.25 516.29-17.05Q516.29-17.9 516.04-18.68 515.79-19.45 514.59-19.5L514.59-19.5 514.59-19.95 519.59-21.55 519.59-18.8Q519.94-19.2 520.49-19.68 521.04-20.15 521.81-20.58 522.59-21 523.62-21.28 524.64-21.55 526.04-21.55L526.04-21.55Q528.39-21.55 530.04-20.75 531.69-19.95 532.74-18.68 533.79-17.4 534.26-15.88 534.74-14.35 534.74-12.9L534.74-12.9ZM562.04 0L557.14 0 557.14-2.2Q556.29-1.25 554.86-0.45 553.44 0.35 551.29 0.35L551.29 0.35Q548.64 0.35 546.66-0.58 544.69-1.5 543.39-3 542.09-4.5 541.46-6.43 540.84-8.35 540.84-10.4L540.84-10.4Q540.84-12.4 541.49-14.38 542.14-16.35 543.44-17.9 544.74-19.45 546.69-20.4 548.64-21.35 551.19-21.35L551.19-21.35Q552.89-21.35 554.54-20.73 556.19-20.1 557.14-19.1L557.14-19.1 557.14-28.85Q557.14-29.7 556.89-30.45 556.64-31.2 555.44-31.25L555.44-31.25 555.44-31.75 560.44-33.3 560.44-3.25Q560.44-2.85 560.54-2.38 560.64-1.9 560.84-1.5 561.04-1.1 561.34-0.8 561.64-0.5 562.04-0.5L562.04-0.5 562.04 0ZM551.64-1.3L551.64-1.3Q552.69-1.3 553.69-1.73 554.69-2.15 555.44-2.88 556.19-3.6 556.66-4.58 557.14-5.55 557.14-6.7L557.14-6.7 557.14-13.55Q557.14-14.95 556.54-16.07 555.94-17.2 555.04-18 554.14-18.8 553.06-19.23 551.99-19.65 550.99-19.65L550.99-19.65Q549.34-19.65 548.04-18.88 546.74-18.1 545.84-16.88 544.94-15.65 544.49-14.13 544.04-12.6 544.04-11.1L544.04-11.1Q544.04-9.35 544.54-7.63 545.04-5.9 546.01-4.53 546.99-3.15 548.39-2.25 549.79-1.35 551.64-1.3ZM597.93 0L593.08 0 593.08-2.55 592.83-2.3Q591.58-1.05 589.96-0.35 588.33 0.35 586.03 0.35L586.03 0.35Q584.28 0.35 583.03-0.05 581.78-0.45 580.98-1.18 580.18-1.9 579.81-2.85 579.43-3.8 579.43-4.85L579.43-4.85Q579.43-6.55 580.36-7.85 581.28-9.15 583.03-10.15 584.78-11.15 587.31-11.98 589.83-12.8 593.08-13.6L593.08-13.6Q592.98-15.55 592.28-16.75 591.58-17.95 590.63-18.63 589.68-19.3 588.63-19.53 587.58-19.75 586.83-19.75L586.83-19.75Q585.53-19.75 584.56-19.35 583.58-18.95 582.86-18.32 582.13-17.7 581.63-16.98 581.13-16.25 580.83-15.6L580.83-15.6 580.38-15.6 580.38-19.25Q580.78-19.3 581.13-19.5 581.48-19.7 581.98-19.9L581.98-19.9Q582.73-20.2 584.03-20.78 585.33-21.35 587.68-21.35L587.68-21.35Q590.43-21.35 592.13-20.65 593.83-19.95 594.76-18.8 595.68-17.65 595.98-16.18 596.28-14.7 596.28-13.15L596.28-13.15 596.28-3.25Q596.28-2.25 596.73-1.38 597.18-0.5 597.93-0.5L597.93-0.5 597.93 0ZM592.53-4.15L593.08-4.75 593.08-11.9 592.58-11.8Q591.38-11.5 589.66-11 587.93-10.5 586.38-9.7 584.83-8.9 583.73-7.8 582.63-6.7 582.63-5.25L582.63-5.25Q582.63-3.65 583.93-2.6 585.23-1.55 587.33-1.55L587.33-1.55Q588.98-1.55 590.23-2.27 591.48-3 592.53-4.15L592.53-4.15ZM621.18-5.7L621.18-1.8Q620.78-1.8 620.43-1.63 620.08-1.45 619.63-1.2L619.63-1.2Q618.78-0.7 617.48-0.18 616.18 0.35 614.08 0.35L614.08 0.35Q611.53 0.35 609.35-0.48 607.18-1.3 605.6-2.78 604.03-4.25 603.15-6.23 602.28-8.2 602.28-10.5L602.28-10.5Q602.28-12.65 603.05-14.6 603.83-16.55 605.28-18.05 606.73-19.55 608.85-20.45 610.98-21.35 613.68-21.35L613.68-21.35Q615.53-21.35 616.68-20.93 617.83-20.5 618.63-20.1L618.63-20.1Q619.08-19.85 619.5-19.7 619.93-19.55 620.38-19.55L620.38-19.55 620.38-15.75 619.88-15.75Q619.63-16.7 618.98-17.43 618.33-18.15 617.48-18.65 616.63-19.15 615.63-19.4 614.63-19.65 613.68-19.65L613.68-19.65Q611.63-19.65 610.08-18.93 608.53-18.2 607.53-17.03 606.53-15.85 606.03-14.35 605.53-12.85 605.53-11.25L605.53-11.25Q605.53-9.4 606.13-7.63 606.73-5.85 607.85-4.45 608.98-3.05 610.58-2.2 612.18-1.35 614.18-1.35L614.18-1.35Q615.58-1.35 616.75-1.75 617.93-2.15 618.75-2.8 619.58-3.45 620.08-4.23 620.58-5 620.68-5.7L620.68-5.7 621.18-5.7ZM635.03-19.3L629.43-19.3 629.43-7.25Q629.43-5.95 629.48-4.9 629.53-3.85 629.73-3.15 629.93-2.45 630.33-2.08 630.73-1.7 631.43-1.7L631.43-1.7Q632.48-1.7 633.4-2.7 634.33-3.7 634.58-5.1L634.58-5.1 635.03-5.1 635.03-1.45Q634.58-1.45 634.28-1.15L634.28-1.15Q633.88-0.8 633.15-0.4 632.43 0 630.98 0L630.98 0Q629.18 0 628.18-0.7 627.18-1.4 626.73-2.55 626.28-3.7 626.2-5.1 626.13-6.5 626.13-7.95L626.13-7.95 626.13-19.3 623.33-19.3 623.33-21 626.13-21 626.13-25.45Q626.13-26.3 625.9-27.03 625.68-27.75 624.43-27.8L624.43-27.8 624.43-28.3 629.43-29.9 629.43-21 635.03-21 635.03-19.3ZM645.97 0L639.47 0 639.47-0.5Q639.87-0.5 640.17-0.8 640.47-1.1 640.67-1.5 640.87-1.9 640.97-2.38 641.07-2.85 641.07-3.25L641.07-3.25 641.07-17.1Q641.07-17.95 640.82-18.73 640.57-19.5 639.37-19.55L639.37-19.55 639.37-20 644.37-21.6 644.37-3.25Q644.37-2.85 644.47-2.38 644.57-1.9 644.77-1.5 644.97-1.1 645.27-0.8 645.57-0.5 645.97-0.5L645.97-0.5 645.97 0ZM639.72-26.4L639.72-26.4Q639.72-27.4 640.4-28.1 641.07-28.8 642.07-28.8L642.07-28.8Q643.07-28.8 643.77-28.1 644.47-27.4 644.47-26.4L644.47-26.4Q644.47-25.4 643.77-24.75 643.07-24.1 642.07-24.1L642.07-24.1Q641.07-24.1 640.4-24.75 639.72-25.4 639.72-26.4ZM661.82 0.35L661.82 0.35Q659.32 0.35 657.32-0.48 655.32-1.3 653.9-2.73 652.47-4.15 651.7-6.1 650.92-8.05 650.92-10.35L650.92-10.35Q650.92-12.8 651.77-14.83 652.62-16.85 654.12-18.3 655.62-19.75 657.67-20.55 659.72-21.35 662.12-21.35L662.12-21.35Q664.52-21.35 666.52-20.58 668.52-19.8 669.97-18.4 671.42-17 672.22-15.08 673.02-13.15 673.02-10.85L673.02-10.85Q673.02-8.7 672.3-6.68 671.57-4.65 670.15-3.1 668.72-1.55 666.65-0.6 664.57 0.35 661.82 0.35ZM661.52-19.7L661.52-19.7Q659.72-19.6 658.35-18.82 656.97-18.05 656.05-16.82 655.12-15.6 654.65-14.05 654.17-12.5 654.17-10.9L654.17-10.9Q654.17-9.05 654.75-7.33 655.32-5.6 656.4-4.25 657.47-2.9 658.97-2.1 660.47-1.3 662.32-1.3L662.32-1.3Q664.17-1.3 665.6-2.1 667.02-2.9 667.97-4.17 668.92-5.45 669.4-7.05 669.87-8.65 669.87-10.25L669.87-10.25Q669.87-11.9 669.37-13.58 668.87-15.25 667.82-16.63 666.77-18 665.2-18.85 663.62-19.7 661.52-19.7ZM697.57-12.9L697.57-3.25Q697.57-2.85 697.67-2.38 697.77-1.9 697.99-1.5 698.22-1.1 698.49-0.8 698.77-0.5 699.17-0.5L699.17-0.5 699.17 0 692.72 0 692.72-0.5Q693.07-0.5 693.37-0.8 693.67-1.1 693.89-1.5 694.12-1.9 694.22-2.38 694.32-2.85 694.32-3.25L694.32-3.25 694.32-12.55Q694.32-14.35 693.82-15.7 693.32-17.05 692.47-17.95 691.62-18.85 690.54-19.28 689.47-19.7 688.37-19.7L688.37-19.7Q687.27-19.7 686.19-19.25 685.12-18.8 684.29-18.07 683.47-17.35 682.94-16.38 682.42-15.4 682.42-14.35L682.42-14.35 682.42-3.25Q682.42-2.85 682.52-2.38 682.62-1.9 682.84-1.5 683.07-1.1 683.34-0.8 683.62-0.5 684.02-0.5L684.02-0.5 684.02 0 677.52 0 677.52-0.5Q677.87-0.5 678.17-0.8 678.47-1.1 678.69-1.5 678.92-1.9 679.02-2.38 679.12-2.85 679.12-3.25L679.12-3.25 679.12-17.05Q679.12-17.9 678.87-18.68 678.62-19.45 677.42-19.5L677.42-19.5 677.42-19.95 682.42-21.55 682.42-18.8Q682.77-19.2 683.32-19.68 683.87-20.15 684.64-20.58 685.42-21 686.44-21.28 687.47-21.55 688.87-21.55L688.87-21.55Q691.22-21.55 692.87-20.75 694.52-19.95 695.57-18.68 696.62-17.4 697.09-15.88 697.57-14.35 697.57-12.9L697.57-12.9ZM704.42-2.15L704.42-2.15Q704.42-3.15 705.09-3.85 705.77-4.55 706.77-4.55L706.77-4.55Q707.77-4.55 708.47-3.85 709.17-3.15 709.17-2.15L709.17-2.15Q709.17-1.15 708.47-0.48 707.77 0.2 706.77 0.2L706.77 0.2Q705.77 0.2 705.09-0.48 704.42-1.15 704.42-2.15Z" opacity="1" transform="matrix(1,0,0,1,0,0)" fill="#000000" class="undefined-text-1" data-fill-palette-color="secondary" id="text-1"></path></svg></g></svg></g></svg></g></svg></g><g transform="matrix(1,0,0,1,109.90178952464598,0)"><svg viewBox="0 0 175.71642095070803 138.32934301376196" height="138.32934301376196" width="175.71642095070803"><g><svg xmlns="http://www.w3.org/2000/svg" xmlns:xlink="http://www.w3.org/1999/xlink" version="1.1" x="8" y="0" viewBox="9.300000190734863 15.5 81.39999389648438 70.5" style="enable-background:new 0 0 100 100;" xml:space="preserve" height="138.32934301376196" width="159.71642095070803" class="icon-icon-0" data-fill-palette-color="accent" id="icon-0"><path d="M9.3 86L50 15.5 90.7 86H9.3zM16.2 82h67.5L50 23.5 16.2 82z" fill="#000000" data-fill-palette-color="accent"></path><path d="M50 64.7c-2.5 0-4.5-2-4.5-4.5s2-4.5 4.5-4.5 4.5 2 4.5 4.5S52.5 64.7 50 64.7z" fill="#000000" data-fill-palette-color="accent"></path></svg></g></svg></g><g><rect width="105.52325594760188" height="5.490927573143141" y="131.8384154406188" x="285.618210475354" fill="#000000" data-fill-palette-color="accent"></rect><rect width="105.52325594760188" height="5.490927573143141" y="131.8384154406188" x="4.378533577044095" fill="#000000" data-fill-palette-color="accent"></rect><rect width="105.52325594760188" height="5.490927573143141" y="120.85656029433252" x="285.618210475354" fill="#000000" data-fill-palette-color="accent"></rect><rect width="105.52325594760188" height="5.490927573143141" y="120.85656029433252" x="4.378533577044095" fill="#000000" data-fill-palette-color="accent"></rect></g></svg></g><defs></defs></svg><rect width="386.7629328459118" height="247.2" fill="none" stroke="none" visibility="hidden"></rect></g></svg></g></svg>