<svg version="1.1" xmlns="http://www.w3.org/2000/svg" viewBox="0 0 587.33984375 302.5" width="587.33984375" height="302.5" class="excalidraw-svg">
  <!-- svg-source:excalidraw -->
  
  <defs><style/></defs>
  <rect x="0" y="0" width="587.33984375" height="302.5" fill="#ffffff"/><g stroke-linecap="round" transform="translate(25 28) rotate(0 54.75 47.25)"><path d="M23.62 0 C43.01 -0.27, 58.74 -0.95, 85.88 0 M23.62 0 C36.1 -0.74, 48.82 -0.94, 85.88 0 M85.88 0 C102.98 1.15, 110.88 5.99, 109.5 23.62 M85.88 0 C100.63 -0.22, 109.47 7.34, 109.5 23.62 M109.5 23.62 C111.64 38.91, 108.98 50.99, 109.5 70.87 M109.5 23.62 C109.47 33.3, 110.58 45.25, 109.5 70.87 M109.5 70.87 C111.14 87.94, 100 96.42, 85.88 94.5 M109.5 70.87 C107.4 88.84, 102.05 92.71, 85.88 94.5 M85.88 94.5 C68.97 93.84, 49.79 94.97, 23.62 94.5 M85.88 94.5 C68.77 93.7, 49.2 94.3, 23.62 94.5 M23.62 94.5 C9.48 96.42, 0.8 88.09, 0 70.87 M23.62 94.5 C7.44 95.01, -0.36 87.16, 0 70.87 M0 70.87 C0.26 54.33, 2.02 35.47, 0 23.62 M0 70.87 C-1.4 59.42, -0.81 47.04, 0 23.62 M0 23.62 C-1.84 7.09, 8.24 -0.29, 23.62 0 M0 23.62 C-0.62 6.24, 9.77 0.71, 23.62 0" stroke="#1e1e1e" stroke-width="2" fill="none"/></g><g transform="translate(39.75 63.25) rotate(0 40 12)"><text x="40" y="0" font-family="LocalFont, Segoe UI Emoji" font-size="20px" fill="#1e1e1e" text-anchor="middle" style="white-space: pre;" direction="ltr" dominant-baseline="text-before-edge">天气情况</text></g><g stroke-linecap="round"><g transform="translate(143.5 68.89665150888797) rotate(0 46.5 -0.9483257544439851)"><path d="M-0.99 0.36 C14.43 -0.11, 77.49 -1.59, 93.33 -1.77 M0.7 -0.5 C15.92 -0.23, 77.03 0.16, 92.56 -0.17" stroke="#1e1e1e" stroke-width="2" fill="none"/></g><g transform="translate(143.5 68.89665150888797) rotate(0 46.5 -0.9483257544439851)"><path d="M69.11 8.5 C78.24 6.06, 86.46 4.09, 92.56 -0.17 M69.11 8.5 C78.59 4.38, 88.44 1.46, 92.56 -0.17" stroke="#1e1e1e" stroke-width="2" fill="none"/></g><g transform="translate(143.5 68.89665150888797) rotate(0 46.5 -0.9483257544439851)"><path d="M69.02 -8.6 C78.33 -4.76, 86.58 -0.45, 92.56 -0.17 M69.02 -8.6 C78.44 -5.96, 88.32 -2.11, 92.56 -0.17" stroke="#1e1e1e" stroke-width="2" fill="none"/></g></g><mask/><g stroke-linecap="round" transform="translate(241 17.5) rotate(0 51.75 55.5)"><path d="M25.88 0 C42.22 -0.43, 60.71 -1.58, 77.63 0 M25.88 0 C39.71 0.53, 55.01 -0.16, 77.63 0 M77.63 0 C96.86 -0.12, 102.78 7.01, 103.5 25.88 M77.63 0 C95.13 1.39, 102.15 9.01, 103.5 25.88 M103.5 25.88 C101.7 48.35, 102.35 66.5, 103.5 85.13 M103.5 25.88 C104.05 40, 103.59 55.75, 103.5 85.13 M103.5 85.13 C103.31 100.83, 94.88 111.68, 77.63 111 M103.5 85.13 C105.42 101.91, 96.83 111.02, 77.63 111 M77.63 111 C58.27 109.39, 42.47 111.12, 25.88 111 M77.63 111 C62.88 112.3, 47.79 111.61, 25.88 111 M25.88 111 C9.34 110.1, 0.24 100.66, 0 85.13 M25.88 111 C8.75 112.62, -1.42 100.56, 0 85.13 M0 85.13 C1.05 66.35, -0.82 47.57, 0 25.88 M0 85.13 C0.04 65.77, -1.11 47.58, 0 25.88 M0 25.88 C-1.78 9.33, 7.4 0.82, 25.88 0 M0 25.88 C-0.96 9.08, 8.69 1.01, 25.88 0" stroke="#1e1e1e" stroke-width="2" fill="none"/></g><g transform="translate(265.7000198364258 49) rotate(0 27.04998016357422 24)"><text x="27.04998016357422" y="0" font-family="LocalFont, Segoe UI Emoji" font-size="20px" fill="#1e1e1e" text-anchor="middle" style="white-space: pre;" direction="ltr" dominant-baseline="text-before-edge">OPEN</text><text x="27.04998016357422" y="24" font-family="LocalFont, Segoe UI Emoji" font-size="20px" fill="#1e1e1e" text-anchor="middle" style="white-space: pre;" direction="ltr" dominant-baseline="text-before-edge">AI</text></g><g stroke-linecap="round"><g transform="translate(352 65.5) rotate(0 49.5 0.75)"><path d="M0.93 1.01 C17.72 1.25, 83.51 0.87, 100.03 1.05 M-0.05 0.49 C16.74 0.94, 82.98 2.42, 99.62 2.35" stroke="#1e1e1e" stroke-width="2" fill="none"/></g><g transform="translate(352 65.5) rotate(0 49.5 0.75)"><path d="M76.03 10.64 C83.41 10.18, 86.64 8.18, 99.62 2.35 M76.03 10.64 C83.65 7.3, 93.06 4.5, 99.62 2.35" stroke="#1e1e1e" stroke-width="2" fill="none"/></g><g transform="translate(352 65.5) rotate(0 49.5 0.75)"><path d="M76.22 -6.46 C83.49 -2.81, 86.68 -0.71, 99.62 2.35 M76.22 -6.46 C83.73 -3.81, 93.07 -0.62, 99.62 2.35" stroke="#1e1e1e" stroke-width="2" fill="none"/></g></g><mask/><g stroke-linecap="round" transform="translate(455.5 10) rotate(0 54.75 60)"><path d="M27.38 0 C46.15 1.35, 67.77 0.65, 82.13 0 M27.38 0 C45.89 0.47, 66.48 0.7, 82.13 0 M82.13 0 C101.01 -1.13, 109.07 9.79, 109.5 27.38 M82.13 0 C98.85 -0.77, 109.83 10.18, 109.5 27.38 M109.5 27.38 C108.26 55, 109.75 77.22, 109.5 92.63 M109.5 27.38 C108.1 41.47, 108.36 54, 109.5 92.63 M109.5 92.63 C107.97 111.69, 101.96 119.32, 82.13 120 M109.5 92.63 C110.1 108.9, 101.64 117.79, 82.13 120 M82.13 120 C61.42 119, 43.55 118.36, 27.38 120 M82.13 120 C66.62 120.23, 52.28 120.3, 27.38 120 M27.38 120 C10.71 118.13, -1.29 111.16, 0 92.63 M27.38 120 C8.06 119.24, 0.29 109.36, 0 92.63 M0 92.63 C-1.25 77.74, -0.85 61.1, 0 27.38 M0 92.63 C-0.75 69.91, -0.29 47.95, 0 27.38 M0 27.38 C-0.42 8.72, 10.02 1.54, 27.38 0 M0 27.38 C-2.26 8.27, 7.59 2.08, 27.38 0" stroke="#1e1e1e" stroke-width="2" fill="none"/></g><g transform="translate(490.25 58) rotate(0 20 12)"><text x="20" y="0" font-family="LocalFont, Segoe UI Emoji" font-size="20px" fill="#1e1e1e" text-anchor="middle" style="white-space: pre;" direction="ltr" dominant-baseline="text-before-edge">通知</text></g><g stroke-linecap="round" transform="translate(10 176.5) rotate(0 63.75 58)"><path d="M51.71 1.2 C60.98 -0.88, 73.98 0.91, 83.59 3.47 C93.19 6.04, 102.56 10.33, 109.35 16.59 C116.13 22.86, 121.49 32.27, 124.3 41.07 C127.1 49.86, 127.83 60.66, 126.18 69.37 C124.52 78.08, 120.5 86.44, 114.37 93.3 C108.24 100.16, 98.68 106.75, 89.41 110.53 C80.14 114.32, 68.5 116.44, 58.74 116.02 C48.97 115.59, 38.94 112.61, 30.81 107.99 C22.69 103.37, 15.06 96.12, 9.98 88.32 C4.9 80.51, 1.16 70.2, 0.32 61.14 C-0.52 52.09, 0.84 42.27, 4.94 33.96 C9.03 25.66, 15.61 16.88, 24.9 11.31 C34.18 5.74, 53.18 2.28, 60.66 0.55 C68.14 -1.17, 69.57 0.14, 69.75 0.95 M70.03 -0.43 C79.85 -0.64, 93.03 3.95, 101.44 9.02 C109.85 14.09, 116.32 21.79, 120.51 29.99 C124.69 38.19, 126.4 48.96, 126.56 58.22 C126.71 67.48, 125.94 77.76, 121.45 85.57 C116.96 93.37, 107.89 100.25, 99.61 105.05 C91.33 109.85, 81.45 113.27, 71.78 114.36 C62.11 115.45, 50.85 114.35, 41.59 111.59 C32.32 108.83, 23.07 104.49, 16.2 97.82 C9.33 91.14, 2.86 80.35, 0.37 71.55 C-2.12 62.75, -1.57 53.7, 1.26 45.02 C4.09 36.35, 10.63 26.35, 17.34 19.51 C24.06 12.66, 32.33 7.32, 41.55 3.95 C50.76 0.58, 67.89 -0.05, 72.63 -0.69 C77.37 -1.33, 70.13 -1.27, 69.98 0.11" stroke="#1e1e1e" stroke-width="2" fill="none"/></g><g transform="translate(33.71197413246307 198.48780669118025) rotate(0 39.95996856689453 36)"><text x="39.95996856689453" y="0" font-family="LocalFont, Segoe UI Emoji" font-size="20px" fill="#1e1e1e" text-anchor="middle" style="white-space: pre;" direction="ltr" dominant-baseline="text-before-edge">Open</text><text x="39.95996856689453" y="24" font-family="LocalFont, Segoe UI Emoji" font-size="20px" fill="#1e1e1e" text-anchor="middle" style="white-space: pre;" direction="ltr" dominant-baseline="text-before-edge">Weather</text><text x="39.95996856689453" y="48" font-family="LocalFont, Segoe UI Emoji" font-size="20px" fill="#1e1e1e" text-anchor="middle" style="white-space: pre;" direction="ltr" dominant-baseline="text-before-edge">API</text></g><g stroke-linecap="round" transform="translate(214.33984375 175.2578125) rotate(0 72.75 58)"><path d="M44.23 4.24 C53.42 0.03, 66.03 -1.47, 77.23 -0.61 C88.43 0.26, 101.66 4.73, 111.45 9.43 C121.24 14.13, 130.36 20.17, 135.96 27.62 C141.56 35.06, 144.57 45.03, 145.06 54.1 C145.55 63.16, 143.67 73.86, 138.92 82.02 C134.17 90.17, 125.56 97.39, 116.56 103.01 C107.55 108.64, 95.97 114.06, 84.87 115.74 C73.76 117.43, 60.62 116.08, 49.92 113.11 C39.23 110.14, 28.41 104.29, 20.69 97.95 C12.97 91.6, 6.99 83.45, 3.62 75.02 C0.26 66.59, -1.55 56.34, 0.5 47.35 C2.55 38.36, 7.45 28.55, 15.91 21.07 C24.36 13.59, 43.55 5.76, 51.25 2.48 C58.94 -0.8, 61.47 0.41, 62.06 1.37 M42.01 4.8 C51.13 0.34, 64.02 -1.23, 75.33 -0.71 C86.63 -0.18, 100.18 3.11, 109.82 7.96 C119.46 12.8, 127.46 20.56, 133.15 28.34 C138.84 36.12, 143.1 45.89, 143.96 54.63 C144.83 63.37, 142.66 72.81, 138.35 80.79 C134.04 88.77, 126.57 96.84, 118.09 102.51 C109.62 108.17, 98.19 112.92, 87.49 114.79 C76.79 116.65, 64.61 116.31, 53.91 113.69 C43.21 111.08, 31.78 105.51, 23.28 99.1 C14.78 92.7, 6.79 83.58, 2.91 75.25 C-0.97 66.92, -1.73 57.69, 0.03 49.11 C1.79 40.53, 6.36 31.1, 13.46 23.77 C20.56 16.43, 37.98 7.78, 42.63 5.1 C47.29 2.41, 41.23 6.69, 41.4 7.64" stroke="#1e1e1e" stroke-width="2" fill="none"/></g><g transform="translate(241.31785410520212 221.24561919118025) rotate(0 45.82997131347656 12)"><text x="45.82997131347656" y="0" font-family="LocalFont, Segoe UI Emoji" font-size="20px" fill="#1e1e1e" text-anchor="middle" style="white-space: pre;" direction="ltr" dominant-baseline="text-before-edge">Langchain</text></g><g stroke-linecap="round" transform="translate(449.83984375 167.2578125) rotate(0 63.75 58)"><path d="M75.96 0.69 C85.24 1.45, 95.41 6.6, 103.19 12.34 C110.96 18.08, 118.46 26.57, 122.59 35.12 C126.73 43.67, 128.95 54.54, 128.02 63.65 C127.1 72.75, 122.33 82.31, 117.05 89.77 C111.76 97.23, 104.64 103.98, 96.33 108.42 C88.02 112.85, 77.32 116.16, 67.19 116.38 C57.06 116.6, 44.67 113.52, 35.57 109.73 C26.47 105.94, 18.5 100.85, 12.56 93.64 C6.63 86.43, 1.54 75.36, -0.04 66.46 C-1.62 57.57, -0.14 48.7, 3.07 40.27 C6.29 31.83, 12.08 22.11, 19.25 15.86 C26.41 9.62, 35.44 5.14, 46.03 2.78 C56.63 0.43, 75.95 1.36, 82.8 1.73 C89.66 2.1, 87.54 4.05, 87.14 5.01 M90.04 4.87 C99.05 7.27, 106.96 14.49, 113.24 21.6 C119.52 28.72, 125.79 38.56, 127.72 47.58 C129.66 56.6, 127.76 67.42, 124.85 75.73 C121.93 84.04, 117.41 90.96, 110.26 97.45 C103.1 103.93, 91.31 111.86, 81.9 114.65 C72.5 117.44, 63.49 116.1, 53.83 114.2 C44.16 112.31, 31.9 108.54, 23.91 103.29 C15.92 98.04, 9.88 90.94, 5.89 82.68 C1.89 74.43, -0.8 62.62, -0.03 53.76 C0.74 44.9, 5.54 37.18, 10.5 29.52 C15.46 21.86, 21.49 12.72, 29.72 7.8 C37.96 2.88, 49.94 0.51, 59.9 0 C69.87 -0.52, 84.7 3.63, 89.51 4.71 C94.33 5.79, 89.01 5.35, 88.79 6.45" stroke="#1e1e1e" stroke-width="2" fill="none"/></g><g transform="translate(491.87180994789276 213.24561919118025) rotate(0 21.639976501464844 12)"><text x="21.639976501464844" y="0" font-family="LocalFont, Segoe UI Emoji" font-size="20px" fill="#1e1e1e" text-anchor="middle" style="white-space: pre;" direction="ltr" dominant-baseline="text-before-edge">Ntfy</text></g></svg>